<?xml version="1.0" encoding="UTF-8"?>
<svg id="Layer_2" data-name="Layer 2" xmlns="http://www.w3.org/2000/svg" viewBox="0 0 307.78 410.21">
  <defs>
    <style>
      .cls-1 {
        fill: #7c9ac0;
      }

      .cls-2 {
        fill: #202945;
      }

      .cls-3 {
        fill: #e53e51;
      }
    </style>
  </defs>
  <g id="Camada_1" data-name="Camada 1">
    <g>
      <g>
        <path class="cls-2" d="M102.59,102.59H0C0,45.93,45.93,0,102.59,0v102.59Z"/>
        <path class="cls-1" d="M102.59,205.19H6.31c-3.49,0-6.31-2.83-6.31-6.31v-96.29h102.59v102.59Z"/>
        <path class="cls-1" d="M205.19,102.59h-102.59V0h96.64c3.29,0,5.96,2.67,5.96,5.96v96.64Z"/>
        <rect class="cls-1" x="102.6" y="205.23" width="102.59" height="102.59"/>
        <path class="cls-2" d="M205.19,205.19h102.59c0,56.67-45.93,102.59-102.59,102.59v-102.59Z"/>
        <path class="cls-1" d="M205.19,102.59h96.71c3.24,0,5.88,2.64,5.88,5.88v96.71h-102.59v-102.59Z"/>
      </g>
      <path class="cls-3" d="M102.59,307.78c0,54.67-42.76,99.34-96.65,102.42-3.23.19-5.94-2.45-5.94-5.69v-90.64c0-3.36,2.73-6.09,6.09-6.09h96.51Z"/>
    </g>
  </g>
</svg>